<?xml version="1.0" encoding="UTF-8" standalone="no"?>
<svg width="37px" height="36px" viewBox="0 0 37 36" version="1.1" xmlns="http://www.w3.org/2000/svg" xmlns:xlink="http://www.w3.org/1999/xlink">
    <!-- Generator: Sketch 3.8.3 (29802) - http://www.bohemiancoding.com/sketch -->
    <title>icon-social-f</title>
    <desc>Created with Sketch.</desc>
    <defs></defs>
    <g id="Page-1" stroke="none" stroke-width="1" fill="none" fill-rule="evenodd">
        <g id="global-footer--desktop" transform="translate(-1061.000000, -434.000000)">
            <g id="FOOTER" transform="translate(0.000000, 288.000000)">
                <g id="2" transform="translate(0.000000, 104.000000)">
                    <g id="Social-links" transform="translate(1060.444444, 42.000000)">
                        <g id="Rectangle-23-+-Imported-Layers" transform="translate(1.111111, 0.000000)">
                            <rect id="Rectangle-23" fill="#39589D" x="0" y="0" width="36" height="36" rx="4"></rect>
                            <path d="M12.4444444,18.4748148 L12.4444444,15.0488889 L15.6063492,15.0488889 L15.6063492,12.5259259 C15.6063492,11.0911111 16.0365079,9.97777778 16.8960317,9.18666667 C17.7555556,8.39555556 18.9007937,8 20.3309524,8 C21.5460317,8 22.4888889,8.04592593 23.1587302,8.13851852 L23.1587302,11.1940741 L21.2119048,11.1940741 C20.5007937,11.1940741 20.0214286,11.3325926 19.7730159,11.6103704 C19.5246032,11.8881481 19.4007937,12.3044444 19.4007937,12.86 L19.4007937,15.0474074 L23.034127,15.0474074 L22.5507937,18.4733333 L19.4007937,18.4733333 L19.4007937,27.2577778 L15.6063492,27.2577778 L15.6063492,18.4733333 L12.4444444,18.4733333 L12.4444444,18.4748148" id="Imported-Layers" fill="#FFFFFF"></path>
                        </g>
                    </g>
                </g>
            </g>
        </g>
    </g>
</svg>