<?xml version="1.0" encoding="UTF-8" standalone="no"?>
<svg width="36px" height="36px" viewBox="0 0 36 36" version="1.1" xmlns="http://www.w3.org/2000/svg" xmlns:xlink="http://www.w3.org/1999/xlink">
    <!-- Generator: Sketch 3.8.3 (29802) - http://www.bohemiancoding.com/sketch -->
    <title>icon-social-i</title>
    <desc>Created with Sketch.</desc>
    <defs></defs>
    <g id="Page-1" stroke="none" stroke-width="1" fill="none" fill-rule="evenodd">
        <g id="global-footer--desktop" transform="translate(-1272.000000, -434.000000)">
            <g id="FOOTER" transform="translate(0.000000, 288.000000)">
                <g id="2" transform="translate(0.000000, 104.000000)">
                    <g id="Social-links" transform="translate(1060.444444, 42.000000)">
                        <g id="Icon/Social/Instagram-Badge" transform="translate(211.555556, 0.000000)">
                            <rect id="Insta-BG" fill="#3F729B" x="0" y="0" width="36" height="36" rx="4"></rect>
                            <path d="M27,5.53846154 L9,5.53846154 C7.08827885,5.53846154 5.53846154,7.08827885 5.53846154,9 L5.53846154,27 C5.53846154,28.9117212 7.08827885,30.4615385 9,30.4615385 L27,30.4615385 C28.9117212,30.4615385 30.4615385,28.9117212 30.4615385,27 L30.4615385,9 C30.4615385,7.08827885 28.9117212,5.53846154 27,5.53846154 L27,5.53846154 Z M18,13.1538462 C20.6764615,13.1538462 22.8461538,15.3235385 22.8461538,18 C22.8461538,20.6764615 20.6764615,22.8461538 18,22.8461538 C15.3235385,22.8461538 13.1538462,20.6764615 13.1538462,18 C13.1538462,15.3235385 15.3235385,13.1538462 18,13.1538462 L18,13.1538462 Z M27.6923077,27 C27.6923077,27.3823269 27.3823269,27.6923077 27,27.6923077 L9,27.6923077 C8.61767308,27.6923077 8.30769231,27.3823269 8.30769231,27 L8.30769231,15.9230769 L10.6714038,15.9230769 C10.4846538,16.5832788 10.3846154,17.28 10.3846154,18 C10.3846154,22.2058558 13.7941442,25.6153846 18,25.6153846 C22.2058558,25.6153846 25.6153846,22.2058558 25.6153846,18 C25.6153846,17.28 25.5153462,16.5832788 25.3285962,15.9230769 L27.6923077,15.9230769 L27.6923077,27 L27.6923077,27 Z M27.6923077,12.4615385 C27.6923077,12.8438654 27.3823269,13.1538462 27,13.1538462 L23.5384615,13.1538462 C23.1561346,13.1538462 22.8461538,12.8438654 22.8461538,12.4615385 L22.8461538,9 C22.8461538,8.61767308 23.1561346,8.30769231 23.5384615,8.30769231 L27,8.30769231 C27.3823269,8.30769231 27.6923077,8.61767308 27.6923077,9 L27.6923077,12.4615385 L27.6923077,12.4615385 Z" id="Inst-icon" fill="#FFFFFF"></path>
                        </g>
                    </g>
                </g>
            </g>
        </g>
    </g>
</svg>