<?xml version="1.0" encoding="UTF-8" standalone="no"?>
<svg width="37px" height="36px" viewBox="0 0 37 36" version="1.1" xmlns="http://www.w3.org/2000/svg" xmlns:xlink="http://www.w3.org/1999/xlink">
    <!-- Generator: Sketch 3.8.3 (29802) - http://www.bohemiancoding.com/sketch -->
    <title>icon-social-t</title>
    <desc>Created with Sketch.</desc>
    <defs></defs>
    <g id="Page-1" stroke="none" stroke-width="1" fill="none" fill-rule="evenodd">
        <g id="global-footer--desktop" transform="translate(-1116.000000, -434.000000)">
            <g id="FOOTER" transform="translate(0.000000, 288.000000)">
                <g id="2" transform="translate(0.000000, 104.000000)">
                    <g id="Social-links" transform="translate(1060.444444, 42.000000)">
                        <g id="Rectangle-24-+-Imported-Layers" transform="translate(53.777778, 0.000000)">
                            <rect id="Rectangle-24" fill="#2094F2" x="2" y="0" width="36" height="36" rx="4"></rect>
                            <path d="M8.88888889,24.1997143 C9.23205128,24.2357143 9.61376068,24.2537143 10.0349573,24.2537143 C12.2387179,24.2537143 14.202735,23.6374286 15.9260684,22.4057143 C14.8975214,22.3877143 13.977094,22.0997143 13.1638462,21.5417143 C12.3505983,20.9837143 11.7930769,20.2714286 11.4894017,19.4057143 C11.8128205,19.4502857 12.1117949,19.4725714 12.3853846,19.4725714 C12.8065812,19.4725714 13.2230769,19.4237143 13.6339316,19.3251429 C12.5367521,19.1202857 11.628547,18.6222857 10.9093162,17.832 C10.1900855,17.0417143 9.83,16.1245714 9.83,15.0797143 L9.83,15.0257143 C10.495641,15.3651429 11.2101709,15.5485714 11.9745299,15.5751429 C11.3286325,15.1817143 10.814359,14.6682857 10.4317094,14.0348571 C10.0490598,13.4014286 9.85820513,12.714 9.8591453,11.9725714 C9.8591453,11.1865714 10.0744444,10.4588571 10.5059829,9.78942857 C11.6915385,11.1197143 13.1337607,12.1842857 14.8326496,12.984 C16.5315385,13.7837143 18.3507692,14.2277143 20.2903419,14.3168571 C20.2123077,13.9774286 20.1728205,13.6474286 20.1728205,13.326 C20.1728205,12.1294286 20.6353846,11.1094286 21.561453,10.266 C22.4875214,9.42257143 23.6063248,9.00085714 24.9178632,9 C26.2895726,9 27.4450427,9.45514286 28.3842735,10.3662857 C29.4513675,10.1785714 30.4554701,9.83057143 31.395641,9.32142857 C31.0336752,10.3482857 30.3379487,11.1428571 29.3094017,11.7051429 C30.2204274,11.616 31.1305128,11.3931429 32.0415385,11.0357143 C31.3852991,11.9108571 30.5917949,12.6557143 29.6619658,13.272 C29.6723077,13.3971429 29.6770085,13.5848571 29.6770085,13.8342857 C29.6770085,14.9948571 29.4908547,16.1537143 29.118547,17.31 C28.7462393,18.4662857 28.1802564,19.5762857 27.4215385,20.6382857 C26.6628205,21.7002857 25.7593162,22.6405714 24.7110256,23.4574286 C23.662735,24.2742857 22.4000855,24.9265714 20.9211966,25.4125714 C19.4423077,25.8985714 17.8609402,26.142 16.1761538,26.1428571 C13.5220513,26.1428571 11.0935897,25.4957143 8.88982906,24.2005714 L8.88888889,24.1997143" id="Imported-Layers" fill="#FFFFFF"></path>
                        </g>
                    </g>
                </g>
            </g>
        </g>
    </g>
</svg>